<?xml version="1.0" encoding="utf-8"?>
<!-- Generator: Adobe Illustrator 25.2.1, SVG Export Plug-In . SVG Version: 6.00 Build 0)  -->
<svg version="1.1" id="Layer_1" xmlns="http://www.w3.org/2000/svg" xmlns:xlink="http://www.w3.org/1999/xlink" x="0px" y="0px"
	 viewBox="0 0 1366 768" style="enable-background:new 0 0 1366 768;" xml:space="preserve">
<style type="text/css">
	.st0{fill:#ffffff;}
</style>
<g>
	<circle class="st0" cx="393.5" cy="347.5" r="127"/>
	<!-- <path d="M393.5,221c33.8,0,65.6,13.2,89.4,37.1c23.9,23.9,37.1,55.7,37.1,89.4s-13.2,65.6-37.1,89.4
		c-23.9,23.9-55.7,37.1-89.4,37.1s-65.6-13.2-89.4-37.1c-23.9-23.9-37.1-55.7-37.1-89.4s13.2-65.6,37.1-89.4
		C327.9,234.2,359.7,221,393.5,221 M393.5,220C323.1,220,266,277.1,266,347.5S323.1,475,393.5,475S521,417.9,521,347.5
		S463.9,220,393.5,220L393.5,220z"/> -->
</g>
<g>
	<circle class="st0" cx="952" cy="345" r="124.5"/>
	<path d="M952,221c33.1,0,64.3,12.9,87.7,36.3c23.4,23.4,36.3,54.6,36.3,87.7s-12.9,64.3-36.3,87.7c-23.4,23.4-54.6,36.3-87.7,36.3
		s-64.3-12.9-87.7-36.3C840.9,409.3,828,378.1,828,345s12.9-64.3,36.3-87.7C887.7,233.9,918.9,221,952,221 M952,220
		c-69,0-125,56-125,125s56,125,125,125s125-56,125-125S1021,220,952,220L952,220z"/>
</g>
</svg>
